# xmcd
#
# Track frame offsets: 
#        150
#        15397
#        37530
#        57707
#        77433
#        104899
#
# Disc length: 2146 seconds
#
# Revision: 6
# Processed by: cddbd v1.5.2PL0 Copyright (c) Steve Scherf et al.
# Submitted via: ExactAudioCopy v0.99pb5
#
DISCID=3f086006
DTITLE=Lutricia McNeal - Ain't That Just The Way (Maxi CD)
DYEAR=1997
DGENRE=
TTITLE0=Ain't That Just The Way (Radio Edit)
TTITLE1=Ain't That Just The Way (Hurb's Mix)
TTITLE2=Ain't That Just The Way (Extended Version)
TTITLE3=Ain't That Just The Way (Ez's Vinyl Mix)
TTITLE4=Ain't That Just The Way (Original Version)
TTITLE5=Video
EXTD=YEAR: 1997
EXTT0=
EXTT1=
EXTT2=
EXTT3=
EXTT4=
EXTT5=
PLAYORDER=
